<svg width="86" height="40" viewBox="0 0 86 40" fill="none" xmlns="http://www.w3.org/2000/svg">
<path d="M8 0.5H78C82.1421 0.5 85.5 3.85786 85.5 8V32C85.5 36.1421 82.1421 39.5 78 39.5H8C3.85786 39.5 0.5 36.1421 0.5 32V8C0.5 3.85786 3.85786 0.5 8 0.5Z" stroke="#BB6161"/>
<rect x="16.5" y="8.5" width="23" height="23" rx="11.5" stroke="white"/>
<path d="M28 26.2188L27.0312 25.3438C25.9271 24.3438 25.125 23.6042 24.625 23.125C24.125 22.6458 23.5625 22.0521 22.9375 21.3438C22.3333 20.6354 21.9167 20 21.6875 19.4375C21.4583 18.8542 21.3438 18.2604 21.3438 17.6562C21.3438 16.6354 21.6875 15.7708 22.375 15.0625C23.0833 14.3542 23.9583 14 25 14C26.2083 14 27.2083 14.4688 28 15.4062C28.7917 14.4688 29.7917 14 31 14C32.0417 14 32.9062 14.3542 33.5938 15.0625C34.3021 15.7708 34.6562 16.6354 34.6562 17.6562C34.6562 18.4688 34.3854 19.3125 33.8438 20.1875C33.3021 21.0625 32.7083 21.8229 32.0625 22.4688C31.4375 23.1146 30.4062 24.0833 28.9688 25.375L28 26.2188Z" fill="#BB6161"/>
<path d="M50.8928 25V17.4992H48.3584V16.6032H54.5024V17.4992H51.968V25H50.8928ZM57.5837 25.1536C57.029 25.1536 56.5256 25.0256 56.0733 24.7696C55.621 24.5051 55.2626 24.1296 54.9981 23.6432C54.7336 23.1568 54.6013 22.5765 54.6013 21.9024C54.6013 21.2197 54.7336 20.6352 54.9981 20.1488C55.2712 19.6624 55.621 19.2869 56.0477 19.0224C56.4744 18.7579 56.9224 18.6256 57.3917 18.6256C58.1853 18.6256 58.7954 18.8901 59.2221 19.4192C59.6573 19.9483 59.8749 20.6565 59.8749 21.544C59.8749 21.6549 59.8706 21.7659 59.8621 21.8768C59.8621 21.9792 59.8536 22.0688 59.8365 22.1456H55.6381C55.6808 22.8027 55.8856 23.3275 56.2525 23.72C56.628 24.1125 57.1144 24.3088 57.7117 24.3088C58.0104 24.3088 58.2834 24.2661 58.5309 24.1808C58.7869 24.0869 59.0301 23.9675 59.2605 23.8224L59.6317 24.5136C59.3672 24.6843 59.0642 24.8336 58.7229 24.9616C58.3901 25.0896 58.0104 25.1536 57.5837 25.1536ZM55.6253 21.3904H58.9533C58.9533 20.7589 58.8168 20.2811 58.5437 19.9568C58.2792 19.624 57.9037 19.4576 57.4173 19.4576C56.9821 19.4576 56.5896 19.6283 56.2397 19.9696C55.8984 20.3024 55.6936 20.776 55.6253 21.3904ZM60.4542 25L62.4894 21.7488L60.6078 18.7792H61.747L62.579 20.1488C62.6729 20.3109 62.771 20.4816 62.8734 20.6608C62.9758 20.84 63.0825 21.0149 63.1934 21.1856H63.2446C63.3385 21.0149 63.4323 20.84 63.5262 20.6608C63.6201 20.4816 63.7139 20.3109 63.8078 20.1488L64.563 18.7792H65.6638L63.7822 21.864L65.8046 25H64.6654L63.7566 23.5536C63.6457 23.3659 63.5347 23.1781 63.4238 22.9904C63.3129 22.8027 63.1977 22.6192 63.0782 22.44H63.027C62.9161 22.6192 62.8094 22.8027 62.707 22.9904C62.6046 23.1696 62.5022 23.3573 62.3998 23.5536L61.555 25H60.4542ZM68.683 25.1536C68.0174 25.1536 67.5523 24.9616 67.2878 24.5776C67.0318 24.1936 66.9038 23.6944 66.9038 23.08V19.6368H65.9822V18.8432L66.955 18.7792L67.083 17.0384H67.9662V18.7792H69.643V19.6368H67.9662V23.0928C67.9662 23.4768 68.0345 23.7755 68.171 23.9888C68.3161 24.1936 68.5678 24.296 68.9262 24.296C69.0371 24.296 69.1566 24.2789 69.2846 24.2448C69.4126 24.2021 69.5278 24.1637 69.6302 24.1296L69.835 24.9232C69.6643 24.9829 69.4766 25.0341 69.2718 25.0768C69.0755 25.128 68.8793 25.1536 68.683 25.1536Z" fill="#BB6161"/>
</svg>
